<svg width="116" height="110" viewBox="0 0 116 110" fill="none" xmlns="http://www.w3.org/2000/svg">
<ellipse cx="52.8607" cy="63.9832" rx="46.3934" ry="43.9207" fill="#FAFDEA"/>
<path d="M45.4752 72.4834C34.9166 53.9391 40.3559 26.9359 78.7504 31.4907C115.225 44.5042 98.6002 72.846 91.5486 83.8702" stroke="black"/>
<path d="M41.6362 60.7711C45.7956 42.5521 90.0851 35.8679 93.1489 68.5791C95.7086 95.9076 73.9517 100.137 55.7142 100.137" stroke="black"/>
<path d="M47.715 51.9871C65.3125 51.9871 101.787 73.7848 61.153 98.1852C32.3572 111.524 12.8401 76.7128 15.7198 62.0726" stroke="black"/>
<path d="M68.5118 58.819C72.3512 77.0379 30.1172 98.185 16.6791 66.6271C10.9199 45.1547 21.7984 25.9598 46.7548 19.7783" stroke="black"/>
<path d="M96.9882 43.5282C86.7496 15.5491 52.357 12.7247 41.956 23.0319C24.3585 37.3468 26.5982 78.9901 61.7932 74.11" stroke="black"/>
<path d="M13.2275 19.3021L67.3484 64.9771C66.6875 68.9758 64.5908 71.1359 63.8835 71.1274L13.6723 25.3566C11.743 23.8092 7.43911 22.0667 5.65776 27.4753C-3.37958 11.9652 7.05002 13.9914 13.2275 19.3021Z" fill="#E4E4E4"/>
<path d="M98.2035 11.3799C110.252 8.45185 108.605 17.9167 104.22 22.6187L91.5968 33.115C89.8352 30.8503 90.2111 31.3535 87.6947 28.5855L99.6492 20.0623C103.53 16.3033 101.99 16.278 98.2035 11.3799Z" fill="#E4E4E4"/>
<path d="M92.5089 82.5689L112.646 97.5408C117.356 103.536 111.201 103.542 107.534 102.795L89.3193 88.4718C90.9092 86.473 91.5391 83.7199 92.5089 82.5689Z" fill="#E4E4E4"/>
<path d="M26.6247 90.3354L7.94571 105.804C1.01124 108.831 2.63906 102.795 4.31977 99.3989L21.8254 85.13C23.0876 86.3881 25.1181 89.4852 26.6247 90.3354Z" fill="#E4E4E4"/>
</svg>
